<svg xmlns="http://www.w3.org/2000/svg" viewBox="0 0 32 32" role="img" aria-label="Indo Pacific Stock">
  <rect width="32" height="32" rx="6" fill="#0F172A"/>
  <g transform="translate(4 4)">
      <path fill="#059669" d="M14.533 9.034L12.816 1.632A10.40 10.40 0 0 1 21.608 8.020L15.792 12.910Z"/>
      <path fill="#059669" d="M15.603 13.492L22.113 9.572A10.40 10.40 0 0 1 18.754 19.908L12.306 15.888Z"/>
      <path fill="#059669" d="M11.694 15.888L17.434 20.867A10.40 10.40 0 0 1 6.566 20.867L8.397 13.492Z"/>
      <path fill="#059669" d="M8.208 12.910L5.246 19.908A10.40 10.40 0 0 1 1.887 9.572L9.467 9.034Z"/>
      <path fill="#059669" d="M9.962 8.675L2.392 8.020A10.40 10.40 0 0 1 11.184 1.632L14.038 8.675Z"/>
    <circle cx="12" cy="12" r="10.40" stroke="#059669" stroke-width="0.9" fill="none"/>
  </g>
</svg>
